<?xml version="1.0" encoding="UTF-8"?>
<svg id="Capa_1" data-name="Capa 1" xmlns="http://www.w3.org/2000/svg" viewBox="0 0 172.16 42.18">
  <path d="M104.85,12.02c.52.26,1.1.38,1.74.38s1.23-.13,1.77-.38c.53-.26.96-.64,1.27-1.15.31-.51.47-1.16.47-1.96V3.58h-1.67v5.34c0,.43-.07.79-.21,1.08-.14.29-.34.51-.61.65-.27.14-.59.21-.97.21s-.69-.07-.96-.21c-.27-.14-.48-.36-.62-.65-.14-.29-.22-.65-.22-1.08V3.58h-1.67v5.33c0,.79.15,1.45.46,1.96.31.51.72.9,1.24,1.15Z" fill="#093ad8"/>
  <path d="M113.16,8.94c0-.36.06-.65.19-.9.12-.24.3-.43.51-.56.22-.13.46-.2.74-.2.44,0,.76.13.98.4.21.26.32.64.32,1.13v3.46h1.67v-3.61c0-.59-.1-1.1-.28-1.51-.19-.41-.46-.73-.82-.95-.36-.22-.79-.33-1.31-.33-.49,0-.91.11-1.26.32-.35.21-.63.5-.82.86l-.11-1.03h-1.47v6.25h1.67v-3.32Z" fill="#093ad8"/>
  <rect x="118.97" y="6.01" width="1.67" height="6.25" fill="#093ad8"/>
  <path d="M119.81,5.16c.31,0,.56-.09.75-.27.19-.18.29-.4.29-.68s-.1-.5-.29-.68c-.19-.18-.44-.27-.75-.27s-.55.09-.74.27c-.19.18-.28.4-.28.68s.09.5.28.68c.19.18.44.27.74.27Z" fill="#093ad8"/>
  <polygon points="125.84 12.26 128.12 6.01 126.38 6.01 124.83 10.68 123.27 6.01 121.51 6.01 123.8 12.26 125.84 12.26" fill="#093ad8"/>
  <path d="M129.98,12c.48.27,1.04.41,1.67.41.49,0,.93-.09,1.32-.27.39-.18.73-.43,1-.74.28-.32.47-.67.58-1.06h-1.7c-.11.22-.26.39-.45.51-.19.13-.45.19-.76.19s-.57-.07-.81-.21c-.23-.14-.41-.34-.54-.59-.1-.2-.16-.44-.18-.7h4.6c0-.11.01-.21.02-.32,0-.1,0-.2,0-.28,0-.59-.13-1.12-.38-1.58-.26-.46-.62-.82-1.08-1.1-.46-.27-1-.41-1.62-.41s-1.19.14-1.67.43c-.48.29-.85.68-1.12,1.18-.27.5-.4,1.07-.4,1.72s.13,1.18.4,1.67c.27.48.64.86,1.13,1.13ZM130.87,7.42c.24-.14.5-.2.79-.2.38,0,.7.12.96.36.26.24.4.55.43.94h-2.91c.03-.19.09-.36.17-.5.14-.26.33-.46.56-.59Z" fill="#093ad8"/>
  <path d="M139.88,7.63v-1.77c-.36,0-.68.05-.97.15-.29.1-.55.25-.78.45-.23.19-.42.42-.58.69l-.15-1.14h-1.49v6.25h1.67v-2.89c0-.34.04-.62.12-.84.08-.22.2-.4.36-.53.16-.14.34-.23.55-.28.21-.05.44-.08.69-.08h.57Z" fill="#093ad8"/>
  <path d="M143.86,11.04c-.14.06-.33.09-.55.09s-.43-.04-.59-.11c-.17-.07-.3-.18-.4-.31-.1-.13-.17-.27-.2-.42h-1.67c.03.41.17.78.41,1.1.24.32.57.57.99.75.42.18.91.27,1.49.27.54,0,1-.09,1.39-.26.39-.17.7-.42.91-.72.21-.31.32-.66.32-1.06,0-.45-.1-.79-.31-1.02-.21-.24-.49-.42-.86-.55-.36-.13-.78-.24-1.26-.34-.27-.06-.5-.12-.69-.19-.19-.07-.34-.14-.44-.24-.1-.09-.15-.19-.15-.31,0-.17.08-.3.24-.41.16-.11.39-.16.68-.16s.51.05.68.16c.17.11.28.26.33.46h1.57c-.08-.59-.34-1.06-.78-1.4-.44-.34-1.04-.51-1.8-.51-.52,0-.97.09-1.36.26-.38.17-.68.41-.87.71-.2.3-.3.63-.3.99,0,.31.07.56.2.76.13.2.31.37.53.51s.48.25.76.33c.29.09.58.16.87.22.27.05.5.11.69.17.19.07.34.14.44.24.1.09.15.22.15.4,0,.12-.04.23-.11.33-.07.11-.18.19-.32.25Z" fill="#093ad8"/>
  <path d="M148.06,5.16c.31,0,.56-.09.75-.27.19-.18.29-.4.29-.68s-.1-.5-.29-.68c-.19-.18-.44-.27-.75-.27s-.55.09-.74.27c-.19.18-.29.4-.29.68s.09.5.29.68c.19.18.44.27.74.27Z" fill="#093ad8"/>
  <rect x="147.21" y="6.01" width="1.67" height="6.25" fill="#093ad8"/>
  <path d="M156.86,3.33h-1.67v3.48c-.21-.31-.48-.54-.81-.71-.33-.17-.73-.25-1.18-.25-.57,0-1.09.14-1.55.43-.46.28-.82.67-1.08,1.16-.26.49-.38,1.06-.38,1.69s.13,1.18.38,1.67c.26.5.61.88,1.06,1.16.45.28.96.42,1.53.42.35,0,.65-.05.9-.14.25-.09.47-.21.66-.37.19-.15.34-.32.48-.51l.19.87h1.49V3.33ZM155.01,10.08c-.14.27-.33.49-.58.64-.25.15-.54.23-.88.23s-.61-.08-.86-.24c-.25-.16-.45-.37-.59-.64-.14-.27-.21-.58-.21-.95s.07-.66.21-.93c.14-.27.34-.49.59-.64.25-.15.53-.23.85-.23.34,0,.63.07.89.22.25.15.45.36.59.63.14.27.21.59.21.94s-.07.68-.21.95Z" fill="#093ad8"/>
  <path d="M159.29,8.83c-.4.16-.69.39-.89.68-.19.29-.29.63-.29,1.02,0,.35.08.66.25.95.17.28.42.51.76.68.34.17.76.25,1.28.25.26,0,.48-.03.68-.08.2-.05.38-.13.55-.23.17-.1.32-.21.45-.35.13-.13.24-.28.33-.45l.19.95h1.4v-3.88c0-.54-.11-.99-.34-1.37-.23-.38-.56-.66-.99-.86-.43-.19-.94-.29-1.53-.29-.51,0-.98.09-1.39.27-.42.18-.75.43-1,.76-.25.32-.4.71-.44,1.16h1.62c.05-.29.18-.5.4-.63.22-.13.49-.2.8-.2.29,0,.52.05.7.15.18.1.31.25.38.45.08.2.12.45.12.77h-1.52c-.61,0-1.12.08-1.51.24ZM162.26,9.62h0c-.02.22-.07.41-.15.58-.07.17-.17.33-.3.47-.12.14-.27.25-.44.33-.17.08-.36.12-.56.12-.18,0-.35-.03-.49-.09-.14-.06-.25-.14-.33-.25-.07-.11-.11-.25-.11-.4,0-.15.04-.28.11-.4.07-.12.19-.2.35-.27.16-.06.37-.09.64-.09h1.28Z" fill="#093ad8"/>
  <path d="M168.14,12.41c.35,0,.65-.05.9-.14.25-.09.47-.21.66-.37.19-.15.34-.32.48-.51l.19.87h1.49V3.33h-1.67v3.48c-.21-.31-.48-.54-.81-.71-.33-.17-.73-.25-1.18-.25-.57,0-1.09.14-1.55.43-.46.28-.82.67-1.08,1.16-.26.49-.38,1.06-.38,1.69s.13,1.18.38,1.67c.26.5.61.88,1.06,1.16.45.28.96.42,1.53.42ZM167.08,8.19c.14-.27.34-.49.59-.64.25-.15.53-.23.85-.23.34,0,.63.07.89.22.25.15.45.36.59.63.14.27.21.59.21.94s-.07.68-.21.95c-.14.27-.33.49-.58.64-.25.15-.54.23-.88.23s-.61-.08-.86-.24c-.25-.16-.45-.37-.59-.64-.14-.27-.21-.58-.21-.95s.07-.66.21-.93Z" fill="#093ad8"/>
  <polygon points="105.25 25.51 106.92 25.51 106.92 18.18 109.45 18.18 109.45 16.83 102.72 16.83 102.72 18.18 105.25 18.18 105.25 25.51" fill="#093ad8"/>
  <path d="M113.6,25.39c.39-.18.73-.43,1-.74.28-.32.47-.67.58-1.06h-1.7c-.11.22-.26.39-.45.51-.19.13-.45.19-.76.19s-.57-.07-.81-.21c-.23-.14-.41-.34-.54-.59-.1-.2-.16-.44-.18-.7h4.6c0-.11.01-.21.02-.32,0-.1,0-.2,0-.28,0-.59-.13-1.12-.38-1.58-.26-.46-.62-.82-1.08-1.1-.46-.27-1-.41-1.62-.41s-1.19.14-1.67.43c-.48.29-.85.68-1.12,1.18-.27.5-.4,1.07-.4,1.72s.13,1.18.4,1.67c.27.48.64.86,1.13,1.13.48.27,1.04.41,1.67.41.49,0,.93-.09,1.32-.27ZM111.5,20.67c.24-.14.5-.2.79-.2.38,0,.7.12.96.36.26.24.4.55.43.94h-2.91c.03-.19.09-.36.17-.5.14-.26.33-.46.56-.59Z" fill="#093ad8"/>
  <path d="M122.63,23.3h-1.77c-.05.19-.14.36-.26.5-.12.14-.27.25-.45.32-.18.07-.37.11-.59.11s-.43-.04-.61-.13c-.18-.09-.34-.21-.47-.37-.13-.16-.24-.35-.31-.58-.07-.23-.11-.49-.11-.77,0-.39.06-.72.19-.99.13-.27.31-.48.53-.63.23-.15.49-.22.77-.22.33,0,.61.08.84.25.23.17.38.39.46.68h1.77c-.15-.74-.5-1.31-1.04-1.73-.55-.42-1.22-.63-2.02-.63-.63,0-1.19.14-1.67.42-.49.28-.87.67-1.14,1.16-.27.49-.41,1.07-.41,1.73,0,.62.14,1.17.41,1.66.27.49.65.87,1.14,1.15.49.28,1.05.42,1.67.42.79,0,1.46-.21,2.01-.64.55-.43.9-1,1.05-1.71Z" fill="#093ad8"/>
  <path d="M129.95,25.51v-3.61c0-.59-.1-1.1-.28-1.51-.19-.41-.46-.73-.82-.95-.36-.22-.79-.33-1.31-.33-.49,0-.91.11-1.26.32-.35.21-.63.5-.82.86l-.11-1.03h-1.47v6.25h1.67v-3.32c0-.36.06-.65.19-.9.12-.24.3-.43.51-.56.22-.13.46-.2.74-.2.44,0,.76.13.98.4.21.26.32.64.32,1.13v3.46h1.67Z" fill="#093ad8"/>
  <path d="M137.02,24.09c.28-.49.42-1.06.42-1.7s-.14-1.22-.42-1.71c-.28-.49-.65-.87-1.12-1.15-.47-.28-1.01-.41-1.61-.41s-1.14.14-1.62.41c-.48.28-.86.66-1.13,1.15-.28.49-.42,1.06-.42,1.72s.14,1.2.42,1.69c.28.49.65.88,1.13,1.15.48.28,1.01.42,1.62.42s1.14-.14,1.62-.42c.47-.28.85-.66,1.13-1.15ZM135.53,23.39c-.14.27-.31.48-.53.61-.22.14-.46.2-.72.2s-.51-.07-.73-.2c-.22-.14-.4-.34-.53-.61-.13-.27-.19-.61-.19-1s.07-.74.2-1.01c.13-.27.31-.47.53-.61.22-.14.47-.2.74-.2s.5.07.72.2c.21.14.39.34.52.61.13.27.2.61.2,1.01s-.07.73-.2,1Z" fill="#093ad8"/>
  <rect x="138.68" y="16.58" width="1.67" height="8.92" fill="#093ad8"/>
  <path d="M143.13,25.24c.48.28,1.01.42,1.62.42s1.14-.14,1.62-.42c.47-.28.85-.66,1.13-1.15.28-.49.42-1.06.42-1.7s-.14-1.22-.42-1.71c-.28-.49-.65-.87-1.12-1.15-.47-.28-1.01-.42-1.61-.42s-1.14.14-1.62.42c-.48.28-.86.66-1.13,1.15-.28.49-.42,1.06-.42,1.72s.14,1.2.42,1.69c.28.49.65.88,1.13,1.15ZM143.5,21.37c.13-.27.31-.47.53-.61.22-.14.47-.2.74-.2s.5.07.72.2c.21.14.39.34.52.61.13.27.2.61.2,1.01s-.07.73-.2,1c-.14.27-.31.48-.53.61-.22.14-.46.2-.73.2s-.51-.07-.73-.2c-.22-.14-.4-.34-.53-.61-.13-.27-.19-.61-.19-1s.07-.74.2-1.01Z" fill="#093ad8"/>
  <polygon points="143.46 18.73 146.21 17.34 146.02 16.06 143.31 17.62 143.46 18.73" fill="#093ad8"/>
  <path d="M151.45,19.11c-.53,0-.98.1-1.36.31-.38.21-.67.48-.87.82-.2.34-.3.73-.3,1.15s.1.8.3,1.15c.11.18.24.35.41.49l-1.09,1.17v.28c.11.11.25.22.42.32.09.06.19.11.3.16-.24.19-.43.4-.56.62-.15.26-.22.53-.22.83,0,.43.12.79.37,1.08.24.29.59.51,1.03.66.45.14.97.22,1.56.22.65,0,1.19-.1,1.61-.31.42-.21.73-.47.93-.79.2-.32.3-.67.3-1.04s-.08-.7-.24-.97c-.16-.26-.42-.47-.77-.63-.35-.16-.8-.26-1.36-.3-.33-.03-.6-.06-.81-.09-.21-.03-.38-.06-.51-.09-.13-.03-.24-.07-.33-.12-.01,0-.03-.02-.04-.02l.45-.44c.24.06.51.09.79.09.52,0,.97-.1,1.34-.3.38-.2.66-.47.86-.82.2-.34.3-.72.3-1.15,0-.38-.08-.73-.25-1.05l1.08-.09v-.99h-2.36c-.29-.1-.61-.15-.97-.15ZM151.56,25.47c.47.03.79.12.95.25.16.14.24.32.24.55,0,.18-.06.33-.17.46-.11.12-.27.22-.46.28-.2.07-.43.1-.69.1s-.51-.03-.73-.09c-.22-.06-.4-.16-.52-.29-.12-.13-.19-.29-.19-.48,0-.21.08-.4.25-.59.1-.11.23-.21.4-.3.28.05.59.09.92.11ZM152.23,22.14c-.19.17-.45.25-.77.25s-.59-.08-.79-.25c-.2-.17-.3-.41-.3-.74s.1-.57.3-.73c.2-.17.46-.25.79-.25s.58.08.77.25c.19.17.29.41.29.73s-.1.58-.29.74Z" fill="#093ad8"/>
  <path d="M156.82,18.4c.31,0,.56-.09.75-.27.19-.18.29-.4.29-.68s-.1-.5-.29-.68c-.19-.18-.44-.27-.75-.27s-.55.09-.74.27c-.19.18-.29.4-.29.68s.09.5.29.68c.19.18.44.27.74.27Z" fill="#093ad8"/>
  <rect x="155.98" y="19.26" width="1.67" height="6.25" fill="#093ad8"/>
  <path d="M161.37,20.76c.23-.15.49-.22.77-.22.33,0,.61.08.84.25.23.17.38.39.46.68h1.77c-.15-.74-.5-1.31-1.04-1.73-.55-.42-1.22-.63-2.02-.63-.63,0-1.19.14-1.67.42-.49.28-.87.67-1.14,1.16-.27.49-.41,1.07-.41,1.73,0,.62.14,1.17.41,1.66.27.49.65.87,1.14,1.15.49.28,1.05.42,1.67.42.79,0,1.46-.21,2.01-.64.55-.43.9-1,1.05-1.71h-1.77c-.05.19-.14.36-.26.5-.12.14-.27.25-.45.32-.18.07-.37.11-.59.11s-.43-.04-.61-.13c-.18-.09-.34-.21-.47-.37-.13-.16-.24-.35-.31-.58-.07-.23-.11-.49-.11-.77,0-.39.06-.72.19-.99.13-.27.31-.48.53-.63Z" fill="#093ad8"/>
  <path d="M171.82,20.26c-.23-.38-.56-.66-.99-.86-.43-.19-.94-.29-1.53-.29-.51,0-.98.09-1.39.27-.42.18-.75.43-1,.76-.25.32-.4.71-.44,1.16h1.62c.05-.29.18-.5.4-.63.22-.13.49-.2.8-.2.29,0,.52.05.7.15.18.1.31.25.38.45.08.2.12.45.12.77h-1.52c-.61,0-1.12.08-1.51.24-.4.16-.69.39-.89.68-.19.29-.29.63-.29,1.02,0,.35.08.66.25.95.17.28.42.51.76.68.34.17.76.25,1.28.25.26,0,.48-.03.68-.08.2-.05.38-.13.55-.23.17-.1.32-.21.45-.35.13-.13.24-.28.33-.45l.19.95h1.4v-3.88c0-.54-.11-.99-.34-1.37ZM170.43,22.88c-.02.21-.07.4-.15.57-.07.17-.17.33-.3.47-.12.14-.27.25-.44.33-.17.08-.36.12-.56.12-.18,0-.35-.03-.49-.09-.14-.06-.25-.14-.33-.25-.07-.11-.11-.25-.11-.4,0-.15.04-.28.11-.4.07-.12.19-.2.35-.27.16-.06.37-.09.64-.09h1.28Z" fill="#093ad8"/>
  <path d="M108,33.31c-.21-.31-.48-.54-.81-.71-.33-.17-.73-.25-1.18-.25-.57,0-1.09.14-1.55.43-.46.28-.82.67-1.08,1.16-.26.49-.38,1.06-.38,1.69s.13,1.18.38,1.67c.26.5.61.88,1.06,1.16.45.28.96.42,1.53.42.35,0,.65-.05.9-.14.25-.09.47-.21.66-.37.19-.15.34-.32.48-.51l.19.87h1.49v-8.92h-1.67v3.48ZM107.83,36.57c-.14.27-.33.49-.58.64-.25.15-.54.23-.88.23s-.61-.08-.86-.24c-.25-.16-.45-.37-.59-.64-.14-.27-.21-.58-.21-.95s.07-.66.21-.93c.14-.27.34-.49.59-.64.25-.15.53-.23.85-.23.34,0,.63.07.89.22.25.15.45.36.59.63.14.27.21.59.21.94s-.07.68-.21.95Z" fill="#093ad8"/>
  <path d="M115.74,32.77c-.46-.27-1-.41-1.62-.41s-1.19.14-1.67.43c-.48.29-.85.68-1.12,1.18-.27.5-.4,1.07-.4,1.72s.13,1.18.4,1.67c.27.48.64.86,1.13,1.13.48.27,1.04.41,1.67.41.49,0,.93-.09,1.32-.27.39-.18.73-.43,1-.74.28-.32.47-.67.58-1.06h-1.7c-.11.22-.26.39-.45.51-.19.13-.45.19-.76.19s-.57-.07-.81-.21c-.23-.14-.41-.34-.54-.59-.1-.2-.16-.44-.18-.7h4.6c0-.11.01-.21.02-.32,0-.1,0-.2,0-.28,0-.59-.13-1.12-.38-1.58-.26-.46-.62-.82-1.08-1.1ZM112.61,35.01c.03-.19.09-.36.17-.5.14-.26.33-.46.56-.59s.5-.2.79-.2c.38,0,.7.12.96.36.26.24.4.55.43.94h-2.91Z" fill="#093ad8"/>
  <path d="M126.66,34.56c-.21-.13-.45-.22-.7-.27.16-.05.32-.11.47-.19.31-.16.56-.39.75-.69.19-.3.28-.66.28-1.1s-.11-.82-.32-1.16c-.21-.33-.52-.6-.94-.79-.41-.19-.92-.28-1.52-.28h-3.56v8.68h3.68c.61,0,1.13-.1,1.56-.3.43-.2.75-.48.97-.84.22-.36.33-.76.33-1.23,0-.38-.09-.73-.27-1.05-.18-.32-.42-.58-.73-.77ZM122.8,31.42h1.6c.45,0,.78.1,1.02.3.23.2.35.48.35.84s-.12.64-.35.84c-.23.2-.57.3-1,.3h-1.61v-2.28ZM125.59,37.08c-.25.21-.59.31-1.04.31h-1.75v-2.44h1.72c.45,0,.8.11,1.05.33.26.22.38.52.38.91s-.12.69-.37.89Z" fill="#093ad8"/>
  <path d="M133.38,32.77c-.47-.28-1.01-.41-1.61-.41s-1.14.14-1.62.41c-.48.28-.86.66-1.13,1.15-.28.49-.42,1.06-.42,1.72s.14,1.2.42,1.69c.28.49.65.88,1.13,1.15.48.28,1.01.42,1.62.42s1.14-.14,1.62-.42c.47-.28.85-.66,1.13-1.15.28-.49.42-1.06.42-1.7s-.14-1.22-.42-1.71c-.28-.49-.65-.87-1.12-1.15ZM133.02,36.64c-.14.27-.31.48-.53.61-.22.14-.46.2-.73.2s-.51-.07-.73-.2c-.22-.14-.4-.34-.53-.61-.13-.27-.19-.61-.19-1s.07-.74.2-1.01c.13-.27.31-.47.53-.61.22-.14.47-.2.74-.2s.5.07.72.2c.21.14.39.34.52.61.13.27.2.61.2,1.01s-.07.73-.2,1Z" fill="#093ad8"/>
  <rect x="136.16" y="29.83" width="1.67" height="8.92" fill="#093ad8"/>
  <polygon points="138.66 30.87 138.81 31.98 141.56 30.59 141.38 29.31 138.66 30.87" fill="#093ad8"/>
  <rect x="139.27" y="32.51" width="1.67" height="6.25" fill="#093ad8"/>
  <polygon points="145.08 37.18 143.52 32.51 141.76 32.51 144.05 38.75 146.09 38.75 148.37 32.51 146.63 32.51 145.08 37.18" fill="#093ad8"/>
  <path d="M153.18,32.65c-.43-.19-.94-.29-1.53-.29-.51,0-.98.09-1.39.27-.42.18-.75.43-1,.76-.25.32-.4.71-.44,1.16h1.62c.05-.29.18-.5.4-.63.22-.13.49-.2.8-.2.29,0,.52.05.7.15.18.1.31.25.38.45.08.2.12.45.12.77h-1.52c-.61,0-1.12.08-1.51.24-.4.16-.69.39-.89.68-.19.29-.29.63-.29,1.02,0,.35.08.66.25.95.17.28.42.51.76.68.34.17.76.25,1.28.25.26,0,.48-.03.68-.08.2-.05.38-.13.55-.23.17-.1.32-.21.45-.35.13-.13.24-.28.33-.45l.19.95h1.4v-3.88c0-.54-.11-.99-.34-1.37-.23-.38-.56-.66-.99-.86ZM152.78,36.13c-.02.21-.07.4-.15.57-.07.17-.17.33-.3.47-.12.14-.27.25-.44.33-.17.08-.36.12-.56.12-.18,0-.35-.03-.49-.09-.14-.06-.25-.14-.33-.25-.07-.11-.11-.25-.11-.4,0-.15.04-.28.11-.4.07-.12.19-.2.35-.27.16-.06.37-.09.64-.09h1.28Z" fill="#093ad8"/>
  <path d="M158.09,32.96c-.23.19-.42.42-.58.69l-.15-1.14h-1.49v6.25h1.67v-2.89c0-.34.04-.62.12-.84.08-.22.2-.4.36-.53.16-.14.34-.23.55-.28.21-.05.44-.08.69-.08h.57v-1.77c-.36,0-.68.05-.97.15-.29.1-.55.25-.78.45Z" fill="#093ad8"/>
  <path d="M85.75,0H18.16v28.28h-4.38V0H3.24C1.45,0,0,1.45,0,3.24v35.69c0,1.79,1.45,3.24,3.24,3.24h25.42c1.79,0,3.24-1.45,3.24-3.24v-19.86h4.38v23.1h16.56v-23.1h22.85v4.17h-18.61v18.93h28.68c1.79,0,3.24-1.45,3.24-3.24v-12.95c0-2.42-1.77-4.43-4.08-4.8-.07-.01-.07-.11,0-.12,2.31-.37,4.08-2.37,4.08-4.8V3.24c0-1.79-1.45-3.24-3.24-3.24Z" fill="#093ad8"/>
</svg>